<?xml version="1.0" encoding="UTF-8"?>
<svg xmlns="http://www.w3.org/2000/svg" version="1.1" width="100.28" height="58.078" viewBox="0 0 100.28 58.078">
  <metadata>prototype=compound-prototype-shape-58; representativeShape=shape-58.whole; audiveris=HW_REST_set; confidence=0.090439; interline=20</metadata>
  <path d="M 17.48 55.938 L 16.618744 55.917209 L 15.789954 55.854838 L 14.993594 55.750891 L 14.22963 55.60537 L 13.498027 55.418281 L 12.79875 55.189625 L 12.131765 54.919407 L 11.497037 54.60763 L 10.894531 54.254297 L 10.324213 53.859412 L 9.786047 53.422979 L 9.28 52.945 L 8.810417 52.422439 L 8.381667 51.851759 L 7.99375 51.232969 L 7.646667 50.566074 L 7.340417 49.851082 L 7.075 49.088 L 6.850417 48.276834 L 6.666667 47.417593 L 6.52375 46.510281 L 6.421667 45.554907 L 6.360417 44.551478 L 6.34 43.5 L 6.34 22.344 L 2 22.344 L 2 17.016 L 6.34 17.016 L 6.34 6.031 L 12.76 6.031 L 12.76 17.016 L 24.59 17.016 L 24.59 22.344 L 12.76 22.344 L 12.76 40.485 L 12.760822 40.960041 L 12.763241 41.416662 L 12.767188 41.854859 L 12.772593 42.27463 L 12.779387 42.675969 L 12.7875 43.058875 L 12.796863 43.423343 L 12.807407 43.76937 L 12.819063 44.096953 L 12.831759 44.406088 L 12.845428 44.696771 L 12.86 44.969 L 12.881464 45.230479 L 12.91088 45.488917 L 12.948281 45.744313 L 12.993704 45.996667 L 13.047182 46.245979 L 13.10875 46.49225 L 13.178443 46.735479 L 13.256296 46.975667 L 13.342344 47.212813 L 13.43662 47.446917 L 13.539161 47.677979 L 13.65 47.906 L 13.752303 48.102271 L 13.864259 48.290083 L 13.985937 48.469438 L 14.117407 48.640333 L 14.258738 48.802771 L 14.41 48.95675 L 14.571262 49.102271 L 14.742593 49.239333 L 14.924063 49.367938 L 15.115741 49.488083 L 15.317697 49.599771 L 15.53 49.703 L 15.751661 49.797875 L 15.98662 49.8845 L 16.234844 49.962875 L 16.496296 50.033 L 16.770943 50.094875 L 17.05875 50.1485 L 17.359682 50.193875 L 17.673704 50.231 L 18.000781 50.259875 L 18.34088 50.2805 L 18.693964 50.292875 L 19.06 50.297 L 19.319375 50.293792 L 19.5775 50.284171 L 19.834375 50.268141 L 20.09 50.245704 L 20.344375 50.216864 L 20.5975 50.181625 L 20.849375 50.13999 L 21.1 50.091963 L 21.349375 50.037547 L 21.5975 49.976745 L 21.844375 49.909562 L 22.09 49.836 L 22.329375 49.760271 L 22.5575 49.686588 L 22.774375 49.614953 L 22.98 49.54537 L 23.174375 49.477843 L 23.3575 49.412375 L 23.529375 49.348969 L 23.69 49.28763 L 23.839375 49.228359 L 23.9775 49.171162 L 24.104375 49.116041 L 24.22 49.063 L 24.59 49.063 L 24.59 54.844 L 24.287286 54.928417 L 23.98412 55.009671 L 23.680469 55.087766 L 23.376296 55.162704 L 23.071568 55.234489 L 22.76625 55.303125 L 22.460307 55.368615 L 22.153704 55.430963 L 21.846406 55.490172 L 21.53838 55.546245 L 21.229589 55.599187 L 20.92 55.649 L 20.611881 55.69502 L 20.307546 55.737074 L 20.007031 55.775156 L 19.71037 55.809259 L 19.417598 55.839376 L 19.12875 55.8655 L 18.84386 55.887624 L 18.562963 55.905741 L 18.286094 55.919844 L 18.013287 55.929926 L 17.744578 55.93598 L 17.48 55.938 Z M 58.93 55.188 L 52.51 55.188 L 52.51 33.453 L 52.508322 33.015542 L 52.503241 32.583167 L 52.494688 32.155875 L 52.482593 31.733667 L 52.466887 31.316542 L 52.4475 30.9045 L 52.424363 30.497542 L 52.397407 30.095667 L 52.366563 29.698875 L 52.331759 29.307167 L 52.292928 28.920542 L 52.25 28.539 L 52.204369 28.166583 L 52.152454 27.806833 L 52.094219 27.45975 L 52.02963 27.125333 L 51.958652 26.803583 L 51.88125 26.4945 L 51.79739 26.198083 L 51.707037 25.914333 L 51.610156 25.64325 L 51.506713 25.384833 L 51.396672 25.139083 L 51.28 24.906 L 51.145625 24.671604 L 51.0025 24.447412 L 50.850625 24.233422 L 50.69 24.02963 L 50.520625 23.836032 L 50.3425 23.652625 L 50.155625 23.479406 L 49.96 23.31637 L 49.755625 23.163516 L 49.5425 23.020838 L 49.320625 22.888334 L 49.09 22.766 L 48.848113 22.653645 L 48.592407 22.551079 L 48.322812 22.458297 L 48.039259 22.375296 L 47.741678 22.302073 L 47.43 22.238625 L 47.104155 22.184947 L 46.764074 22.141037 L 46.409687 22.106891 L 46.040926 22.082505 L 45.65772 22.067876 L 45.26 22.063 L 44.861256 22.071896 L 44.460046 22.098583 L 44.056406 22.143062 L 43.65037 22.205333 L 43.241973 22.285396 L 42.83125 22.38325 L 42.418235 22.498896 L 42.002963 22.632333 L 41.585469 22.783563 L 41.165787 22.952583 L 40.743953 23.139396 L 40.32 23.344 L 39.898137 23.562937 L 39.477593 23.792745 L 39.058438 24.033422 L 38.640741 24.284963 L 38.224572 24.547365 L 37.81 24.820625 L 37.397095 25.104739 L 36.985926 25.399704 L 36.576563 25.705516 L 36.169074 26.022171 L 35.76353 26.349667 L 35.36 26.688 L 35.36 55.188 L 28.93 55.188 L 28.93 2 L 35.36 2 L 35.36 21.25 L 35.837083 20.831292 L 36.313333 20.429167 L 36.78875 20.043625 L 37.263333 19.674667 L 37.737083 19.322292 L 38.21 18.9865 L 38.682083 18.667292 L 39.153333 18.364667 L 39.62375 18.078625 L 40.093333 17.809167 L 40.562083 17.556292 L 41.03 17.32 L 41.497286 17.10173 L 41.96912 16.902421 L 42.445469 16.722078 L 42.926296 16.560704 L 43.411568 16.418302 L 43.90125 16.294875 L 44.395307 16.190428 L 44.893704 16.104963 L 45.396406 16.038484 L 45.90338 15.990995 L 46.414589 15.962499 L 46.93 15.953 L 47.852917 15.978728 L 48.741667 16.055907 L 49.59625 16.184531 L 50.416667 16.364593 L 51.202917 16.596084 L 51.955 16.879 L 52.672917 17.213332 L 53.356667 17.599074 L 54.00625 18.036219 L 54.621667 18.524759 L 55.202917 19.064689 L 55.75 19.656 L 56.257917 20.296459 L 56.721667 20.983338 L 57.14125 21.716641 L 57.516667 22.49637 L 57.847917 23.322531 L 58.135 24.195125 L 58.377917 25.114157 L 58.576667 26.07963 L 58.73125 27.091547 L 58.841667 28.149912 L 58.907917 29.254729 L 58.93 30.406 L 58.93 55.188 Z M 84.5 56.078 L 83.006036 56.04225 L 81.56912 55.935 L 80.189219 55.75625 L 78.866296 55.506 L 77.600318 55.18425 L 76.39125 54.791 L 75.239057 54.32625 L 74.143704 53.79 L 73.105156 53.18225 L 72.12338 52.503 L 71.198339 51.75225 L 70.33 50.93 L 69.525 50.04198 L 68.79 49.093926 L 68.125 48.085844 L 67.53 47.017741 L 67.005 45.889624 L 66.55 44.7015 L 66.165 43.453376 L 65.85 42.145259 L 65.605 40.777156 L 65.43 39.349074 L 65.325 37.86102 L 65.29 36.313 L 65.323958 34.784729 L 65.425833 33.309417 L 65.595625 31.887063 L 65.833333 30.517667 L 66.138958 29.201229 L 66.5125 27.93775 L 66.953958 26.727229 L 67.463333 25.569667 L 68.040625 24.465063 L 68.685833 23.413417 L 69.398958 22.414729 L 70.18 21.469 L 71.01603 20.588042 L 71.894074 19.783671 L 72.814062 19.055891 L 73.775926 18.404704 L 74.779595 17.830114 L 75.825 17.332125 L 76.912072 16.91074 L 78.040741 16.565963 L 79.210938 16.297797 L 80.422593 16.106245 L 81.675637 15.991312 L 82.97 15.953 L 83.556869 15.960105 L 84.132454 15.981421 L 84.696719 16.016953 L 85.24963 16.066704 L 85.791152 16.130677 L 86.32125 16.208875 L 86.83989 16.301303 L 87.347037 16.407963 L 87.842656 16.528859 L 88.326713 16.663995 L 88.799172 16.813374 L 89.26 16.977 L 89.712506 17.155584 L 90.155046 17.350338 L 90.587656 17.561266 L 91.01037 17.78837 L 91.423223 18.031656 L 91.82625 18.291125 L 92.219485 18.566782 L 92.602963 18.85863 L 92.976719 19.166672 L 93.340787 19.490912 L 93.695203 19.831354 L 94.04 20.188 L 94.375828 20.559291 L 94.698287 20.944162 L 95.007344 21.342609 L 95.302963 21.75463 L 95.58511 22.180219 L 95.85375 22.619375 L 96.108848 23.072093 L 96.35037 23.53837 L 96.578281 24.018203 L 96.792546 24.511588 L 96.993131 25.018521 L 97.18 25.539 L 97.354994 26.076293 L 97.514954 26.633176 L 97.659844 27.209656 L 97.78963 27.805741 L 97.904277 28.421436 L 98.00375 29.05675 L 98.088015 29.711689 L 98.157037 30.386259 L 98.210781 31.080469 L 98.249213 31.794324 L 98.272297 32.527832 L 98.28 33.281 L 98.28 36.766 L 71.82 36.766 L 71.843333 37.8535 L 71.913333 38.8975 L 72.03 39.898 L 72.193333 40.855 L 72.403333 41.7685 L 72.66 42.6385 L 72.963333 43.465 L 73.313333 44.248 L 73.71 44.9875 L 74.153333 45.6835 L 74.643333 46.336 L 75.18 46.945 L 75.755405 47.507791 L 76.366574 48.021662 L 77.013437 48.486609 L 77.695926 48.90263 L 78.41397 49.269719 L 79.1675 49.587875 L 79.956447 49.857093 L 80.780741 50.07737 L 81.640312 50.248703 L 82.535093 50.371088 L 83.465012 50.444521 L 84.43 50.469 L 84.784369 50.465688 L 85.137454 50.45575 L 85.489219 50.439188 L 85.83963 50.416 L 86.188652 50.386187 L 86.53625 50.34975 L 86.88239 50.306688 L 87.227037 50.257 L 87.570156 50.200688 L 87.911713 50.13775 L 88.251672 50.068188 L 88.59 49.992 L 88.924988 49.910834 L 89.254907 49.825838 L 89.579687 49.737016 L 89.899259 49.64437 L 90.213553 49.547906 L 90.5225 49.447625 L 90.82603 49.343532 L 91.124074 49.23563 L 91.416563 49.123922 L 91.703426 49.008412 L 91.984595 48.889104 L 92.26 48.766 L 92.548547 48.633668 L 92.829213 48.502176 L 93.102031 48.371531 L 93.367037 48.241741 L 93.624265 48.112811 L 93.87375 47.98475 L 94.115527 47.857564 L 94.34963 47.731259 L 94.576094 47.605844 L 94.794954 47.481324 L 95.006244 47.357707 L 95.21 47.235 L 95.404786 47.113166 L 95.59412 46.992662 L 95.777969 46.873484 L 95.956296 46.75563 L 96.129068 46.639094 L 96.29625 46.523875 L 96.457807 46.409968 L 96.613704 46.29737 L 96.763906 46.186078 L 96.90838 46.076088 L 97.047089 45.967396 L 97.18 45.86 L 97.56 45.86 L 97.56 52.86 L 97.368744 52.936959 L 97.169954 53.016838 L 96.963594 53.099641 L 96.74963 53.18537 L 96.528027 53.274031 L 96.29875 53.365625 L 96.061765 53.460157 L 95.817037 53.55763 L 95.564531 53.658047 L 95.304213 53.761412 L 95.036047 53.867729 L 94.76 53.977 L 94.484595 54.08552 L 94.213426 54.190074 L 93.946563 54.290656 L 93.684074 54.387259 L 93.42603 54.479876 L 93.1725 54.5685 L 92.923553 54.653124 L 92.679259 54.733741 L 92.439688 54.810344 L 92.204907 54.882926 L 91.974988 54.95148 L 91.75 55.016 L 91.439803 55.100313 L 91.134259 55.18125 L 90.833438 55.258813 L 90.537407 55.333 L 90.246238 55.403813 L 89.96 55.47125 L 89.678762 55.535313 L 89.402593 55.596 L 89.131563 55.653313 L 88.865741 55.70725 L 88.605197 55.757813 L 88.35 55.805 L 88.089578 55.848604 L 87.818287 55.888417 L 87.536094 55.924438 L 87.242963 55.956667 L 86.93886 55.985104 L 86.62375 56.00975 L 86.297598 56.030604 L 85.96037 56.047667 L 85.612031 56.060938 L 85.252546 56.070417 L 84.881881 56.076104 L 84.5 56.078 Z M 92.03 31.844 L 92.014167 31.416687 L 91.991667 30.999245 L 91.9625 30.591672 L 91.926667 30.193963 L 91.884167 29.806115 L 91.835 29.428125 L 91.779167 29.059989 L 91.716667 28.701704 L 91.6475 28.353266 L 91.571667 28.014671 L 91.489167 27.685917 L 91.4 27.367 L 91.306667 27.057313 L 91.206667 26.755755 L 91.1 26.462328 L 90.986667 26.177037 L 90.866667 25.899885 L 90.74 25.630875 L 90.606667 25.370011 L 90.466667 25.117296 L 90.32 24.872734 L 90.166667 24.636329 L 90.006667 24.408083 L 89.84 24.188 L 89.648119 23.953041 L 89.447454 23.727662 L 89.237969 23.511859 L 89.01963 23.30563 L 88.792402 23.108969 L 88.55625 22.921875 L 88.31114 22.744343 L 88.057037 22.57637 L 87.793906 22.417953 L 87.521713 22.269088 L 87.240422 22.129771 L 86.95 22 L 86.649369 21.880208 L 86.337454 21.770833 L 86.014219 21.671875 L 85.67963 21.583333 L 85.333652 21.505208 L 84.97625 21.4375 L 84.60739 21.380208 L 84.227037 21.333333 L 83.835156 21.296875 L 83.431713 21.270833 L 83.016672 21.255208 L 82.59 21.25 L 82.167911 21.255313 L 81.75662 21.271255 L 81.356094 21.297828 L 80.966296 21.335037 L 80.587193 21.382885 L 80.21875 21.441375 L 79.860932 21.510511 L 79.513704 21.590296 L 79.177031 21.680734 L 78.85088 21.781829 L 78.535214 21.893583 L 78.23 22.016 L 77.932297 22.148395 L 77.639213 22.290579 L 77.350781 22.442547 L 77.067037 22.604296 L 76.788015 22.775823 L 76.51375 22.957125 L 76.244277 23.148197 L 75.97963 23.349037 L 75.719844 23.559641 L 75.464954 23.780005 L 75.214994 24.010126 L 74.97 24.25 L 74.734792 24.504897 L 74.509167 24.764093 L 74.293125 25.027594 L 74.086667 25.295407 L 73.889792 25.567541 L 73.7025 25.844 L 73.524792 26.124793 L 73.356667 26.409926 L 73.198125 26.699406 L 73.049167 26.993241 L 72.909792 27.291436 L 72.78 27.594 L 72.65875 27.902855 L 72.545 28.219926 L 72.43875 28.545219 L 72.34 28.878741 L 72.24875 29.220499 L 72.165 29.5705 L 72.08875 29.928751 L 72.02 30.295259 L 71.95875 30.670031 L 71.905 31.053074 L 71.85875 31.444395 L 71.82 31.844 L 92.03 31.844 Z" fill="black" fill-rule="evenodd" stroke="none"/>
</svg>
