<?xml version="1.0" encoding="UTF-8"?>
<svg xmlns="http://www.w3.org/2000/svg" version="1.1" width="94.52" height="51.078" viewBox="0 0 94.52 51.078">
  <metadata>prototype=compound-prototype-shape-53; representativeShape=shape-53.whole; audiveris=CLUTTER; confidence=0.326119; interline=20</metadata>
  <path d="M 19.28 39.718 L 18.644381 39.709874 L 18.017546 39.685491 L 17.399531 39.644844 L 16.79037 39.587926 L 16.190098 39.51473 L 15.59875 39.42525 L 15.01636 39.319478 L 14.442963 39.197407 L 13.878594 39.059031 L 13.323287 38.904343 L 12.777078 38.733334 L 12.24 38.546 L 11.711453 38.342291 L 11.195787 38.121662 L 10.692969 37.884109 L 10.202963 37.62963 L 9.725735 37.358219 L 9.26125 37.069875 L 8.809473 36.764593 L 8.37037 36.44237 L 7.943906 36.103203 L 7.530046 35.747088 L 7.128756 35.374021 L 6.74 34.984 L 6.364803 34.572353 L 6.004259 34.144907 L 5.658438 33.701656 L 5.327407 33.242593 L 5.011238 32.767709 L 4.71 32.277 L 4.423762 31.770457 L 4.152593 31.248074 L 3.896563 30.709844 L 3.655741 30.155759 L 3.430197 29.585814 L 3.22 29 L 3.025839 28.398751 L 2.84838 27.782505 L 2.687656 27.151266 L 2.543704 26.505037 L 2.416557 25.843822 L 2.30625 25.167625 L 2.212818 24.476448 L 2.136296 23.770296 L 2.076719 23.049172 L 2.03412 22.313079 L 2.008536 21.56202 L 2 20.796 L 2.008547 20.070604 L 2.034213 19.357912 L 2.077031 18.657922 L 2.137037 17.97063 L 2.214265 17.296032 L 2.30875 16.634125 L 2.420527 15.984906 L 2.54963 15.34837 L 2.696094 14.724516 L 2.859954 14.113338 L 3.041244 13.514834 L 3.24 12.929 L 3.452494 12.35673 L 3.679954 11.798421 L 3.922344 11.254078 L 4.17963 10.723704 L 4.451777 10.207302 L 4.73875 9.704875 L 5.040515 9.216428 L 5.357037 8.741963 L 5.688281 8.281484 L 6.034213 7.834995 L 6.394797 7.402499 L 6.77 6.984 L 7.147089 6.593104 L 7.53838 6.217412 L 7.943906 5.856922 L 8.363704 5.51163 L 8.797807 5.181532 L 9.24625 4.866625 L 9.709068 4.566906 L 10.186296 4.28237 L 10.677969 4.013016 L 11.18412 3.758838 L 11.704786 3.519834 L 12.24 3.296 L 12.784375 3.089 L 13.3375 2.9 L 13.899375 2.729 L 14.47 2.576 L 15.049375 2.441 L 15.6375 2.324 L 16.234375 2.225 L 16.84 2.144 L 17.454375 2.081 L 18.0775 2.036 L 18.709375 2.009 L 19.35 2 L 19.653762 2.001896 L 19.955093 2.007583 L 20.254063 2.017063 L 20.550741 2.030333 L 20.845197 2.047396 L 21.1375 2.06825 L 21.42772 2.092896 L 21.715926 2.121333 L 22.002188 2.153563 L 22.286574 2.189583 L 22.569155 2.229396 L 22.85 2.273 L 23.129161 2.319751 L 23.40662 2.369005 L 23.682344 2.420766 L 23.956296 2.475037 L 24.228443 2.531822 L 24.49875 2.591125 L 24.767182 2.652948 L 25.033704 2.717296 L 25.298281 2.784172 L 25.56088 2.853579 L 25.821464 2.92552 L 26.08 3 L 26.284578 3.064396 L 26.493287 3.132583 L 26.706094 3.204563 L 26.922963 3.280333 L 27.14386 3.359896 L 27.36875 3.44325 L 27.597598 3.530396 L 27.83037 3.621333 L 28.067031 3.716063 L 28.307546 3.814583 L 28.551881 3.916896 L 28.8 4.023 L 29.046036 4.129646 L 29.28412 4.233588 L 29.514219 4.334828 L 29.736296 4.43337 L 29.950318 4.529218 L 30.15625 4.622375 L 30.354057 4.712844 L 30.543704 4.80063 L 30.725156 4.885734 L 30.89838 4.968162 L 31.063339 5.047916 L 31.22 5.125 L 31.22 10.968 L 30.82 10.968 L 30.667286 10.833376 L 30.51412 10.700009 L 30.360469 10.567906 L 30.206296 10.437074 L 30.051568 10.30752 L 29.89625 10.17925 L 29.740307 10.052272 L 29.583704 9.926593 L 29.426406 9.802219 L 29.26838 9.679157 L 29.109589 9.557416 L 28.95 9.437 L 28.784375 9.31648 L 28.6075 9.194421 L 28.419375 9.070828 L 28.22 8.945704 L 28.009375 8.819052 L 27.7875 8.690875 L 27.554375 8.561178 L 27.31 8.429963 L 27.054375 8.297234 L 26.7875 8.162995 L 26.509375 8.027249 L 26.22 7.89 L 25.972078 7.769417 L 25.718287 7.652171 L 25.458594 7.538266 L 25.192963 7.427704 L 24.92136 7.320489 L 24.64375 7.216625 L 24.360098 7.116115 L 24.07037 7.018963 L 23.774531 6.925172 L 23.472546 6.834745 L 23.164381 6.747687 L 22.85 6.664 L 22.532714 6.585397 L 22.21088 6.513593 L 21.884531 6.448594 L 21.553704 6.390407 L 21.218432 6.339041 L 20.87875 6.2945 L 20.534693 6.256793 L 20.186296 6.225926 L 19.833594 6.201906 L 19.47662 6.184741 L 19.115411 6.174436 L 18.75 6.171 L 17.888964 6.19852 L 17.05588 6.281074 L 16.250781 6.418656 L 15.473704 6.611259 L 14.724682 6.858876 L 14.00375 7.1615 L 13.310943 7.519124 L 12.646296 7.931741 L 12.009844 8.399344 L 11.40162 8.921926 L 10.821661 9.49948 L 10.27 10.132 L 9.7525 10.810312 L 9.28 11.52475 L 8.8525 12.275313 L 8.47 13.062 L 8.1325 13.884812 L 7.84 14.74375 L 7.5925 15.638813 L 7.39 16.57 L 7.2325 17.537313 L 7.12 18.54075 L 7.0525 19.580313 L 7.03 20.656 L 7.036036 21.258873 L 7.05412 21.848986 L 7.084219 22.426328 L 7.126296 22.990889 L 7.180318 23.542658 L 7.24625 24.081625 L 7.324057 24.60778 L 7.413704 25.121111 L 7.515156 25.621609 L 7.62838 26.109264 L 7.753339 26.584064 L 7.89 27.046 L 8.035613 27.496 L 8.192407 27.9345 L 8.360313 28.3615 L 8.539259 28.777 L 8.729178 29.181 L 8.93 29.5735 L 9.141655 29.9545 L 9.364074 30.324 L 9.597188 30.682 L 9.840926 31.0285 L 10.09522 31.3635 L 10.36 31.687 L 10.624578 31.995728 L 10.898287 32.291907 L 11.181094 32.575531 L 11.472963 32.846593 L 11.77386 33.105084 L 12.08375 33.351 L 12.402598 33.584332 L 12.73037 33.805074 L 13.067031 34.013219 L 13.412546 34.208759 L 13.766881 34.391689 L 14.13 34.562 L 14.501262 34.719167 L 14.880093 34.862667 L 15.266563 34.9925 L 15.660741 35.108667 L 16.062697 35.211167 L 16.4725 35.3 L 16.89022 35.375167 L 17.315926 35.436667 L 17.749688 35.4845 L 18.191574 35.518667 L 18.641655 35.539167 L 19.1 35.546 L 19.439994 35.543999 L 19.779954 35.537995 L 20.119844 35.527984 L 20.45963 35.513963 L 20.799277 35.495928 L 21.13875 35.473875 L 21.478015 35.447802 L 21.817037 35.417704 L 22.155781 35.383578 L 22.494213 35.345421 L 22.832297 35.30323 L 23.17 35.257 L 23.505422 35.206856 L 23.831713 35.152431 L 24.148906 35.093734 L 24.457037 35.030778 L 24.75614 34.963571 L 25.04625 34.892125 L 25.327402 34.81645 L 25.59963 34.736556 L 25.862969 34.652453 L 26.117454 34.564153 L 26.363119 34.471665 L 26.6 34.375 L 26.6 24.984 L 18.19 24.984 L 18.19 20.734 L 31.38 20.734 L 31.38 36.593 L 31.218333 36.664939 L 31.048333 36.739759 L 30.87 36.817469 L 30.683333 36.898074 L 30.488333 36.981582 L 30.285 37.068 L 30.073333 37.157334 L 29.853333 37.249593 L 29.625 37.344781 L 29.388333 37.442907 L 29.143333 37.543978 L 28.89 37.648 L 28.633953 37.751708 L 28.380787 37.851833 L 28.130469 37.948375 L 27.882963 38.041333 L 27.638235 38.130708 L 27.39625 38.2165 L 27.156973 38.298708 L 26.92037 38.377333 L 26.686406 38.452375 L 26.455046 38.523833 L 26.226256 38.591708 L 26 38.656 L 25.707095 38.742666 L 25.418426 38.825662 L 25.134062 38.904984 L 24.854074 38.98063 L 24.57853 39.052594 L 24.3075 39.120875 L 24.041053 39.185468 L 23.779259 39.24637 L 23.522188 39.303578 L 23.269907 39.357088 L 23.022488 39.406896 L 22.78 39.453 L 22.537922 39.495396 L 22.286713 39.534088 L 22.026406 39.569078 L 21.757037 39.60037 L 21.47864 39.627968 L 21.19125 39.651875 L 20.894902 39.672094 L 20.58963 39.68863 L 20.275469 39.701484 L 19.952454 39.710662 L 19.620619 39.716166 L 19.28 39.718 Z M 41.41 39.015 L 36.82 39.015 L 36.82 11.75 L 41.41 11.75 L 41.41 39.015 Z M 41.72 7.171 L 36.49 7.171 L 36.49 2.421 L 41.72 2.421 L 41.72 7.171 Z M 69.14 11.75 L 54.47 49.078 L 49.57 49.078 L 54.46 37.703 L 44.53 11.75 L 49.5 11.75 L 56.94 31.937 L 64.36 11.75 L 69.14 11.75 Z M 87.96 32.296 L 87.96 24.734 L 87.679167 24.758312 L 87.386667 24.784245 L 87.0825 24.811797 L 86.766667 24.840963 L 86.439167 24.87174 L 86.1 24.904125 L 85.749167 24.938114 L 85.386667 24.973704 L 85.0125 25.010891 L 84.626667 25.049671 L 84.229167 25.090042 L 83.82 25.132 L 83.409167 25.176459 L 83.011667 25.223838 L 82.6275 25.274141 L 82.256667 25.32737 L 81.899167 25.383531 L 81.555 25.442625 L 81.224167 25.504657 L 80.906667 25.56963 L 80.6025 25.637547 L 80.311667 25.708412 L 80.034167 25.782229 L 79.77 25.859 L 79.469381 25.956875 L 79.177546 26.063 L 78.894531 26.177375 L 78.62037 26.3 L 78.355098 26.430875 L 78.09875 26.57 L 77.85136 26.717375 L 77.612963 26.873 L 77.383594 27.036875 L 77.163287 27.209 L 76.952078 27.389375 L 76.75 27.578 L 76.558333 27.777146 L 76.383333 27.989083 L 76.225 28.213813 L 76.083333 28.451333 L 75.958333 28.701646 L 75.85 28.96475 L 75.758333 29.240646 L 75.683333 29.529333 L 75.625 29.830812 L 75.583333 30.145083 L 75.558333 30.472146 L 75.55 30.812 L 75.559167 31.194751 L 75.586667 31.561509 L 75.6325 31.912281 L 75.696667 32.247074 L 75.779167 32.565895 L 75.88 32.86875 L 75.999167 33.155647 L 76.136667 33.426593 L 76.2925 33.681594 L 76.466667 33.920657 L 76.659167 34.143791 L 76.87 34.351 L 77.098339 34.541938 L 77.34338 34.716255 L 77.605156 34.873953 L 77.883704 35.015037 L 78.179057 35.13951 L 78.49125 35.247375 L 78.820318 35.338636 L 79.166296 35.413296 L 79.529219 35.471359 L 79.90912 35.512829 L 80.306036 35.537708 L 80.72 35.546 L 81.079583 35.539499 L 81.433333 35.519995 L 81.78125 35.487484 L 82.123333 35.441963 L 82.459583 35.383428 L 82.79 35.311875 L 83.114583 35.227302 L 83.433333 35.129704 L 83.74625 35.019078 L 84.053333 34.895421 L 84.354583 34.75873 L 84.65 34.609 L 84.941047 34.449708 L 85.229213 34.284333 L 85.514531 34.112875 L 85.797037 33.935333 L 86.076765 33.751708 L 86.35375 33.562 L 86.628027 33.366208 L 86.89963 33.164333 L 87.168594 32.956375 L 87.434954 32.742333 L 87.698744 32.522208 L 87.96 32.296 Z M 87.96 36.109 L 87.862494 36.181479 L 87.759954 36.258417 L 87.652344 36.339813 L 87.53963 36.425667 L 87.421777 36.515979 L 87.29875 36.61075 L 87.170515 36.709979 L 87.037037 36.813667 L 86.898281 36.921812 L 86.754213 37.034417 L 86.604797 37.151479 L 86.45 37.273 L 86.292922 37.394626 L 86.136713 37.512005 L 85.981406 37.625141 L 85.827037 37.734037 L 85.67364 37.838697 L 85.52125 37.939125 L 85.369902 38.035323 L 85.21963 38.127296 L 85.070469 38.215047 L 84.922454 38.298579 L 84.775619 38.377895 L 84.63 38.453 L 84.427928 38.557626 L 84.226759 38.658005 L 84.026563 38.754141 L 83.827407 38.846037 L 83.629363 38.933697 L 83.4325 39.017125 L 83.236887 39.096323 L 83.042593 39.171296 L 82.849688 39.242047 L 82.658241 39.308579 L 82.468322 39.370895 L 82.28 39.429 L 82.083738 39.482667 L 81.874907 39.531667 L 81.653438 39.576 L 81.419259 39.615667 L 81.172303 39.650667 L 80.9125 39.681 L 80.63978 39.706667 L 80.354074 39.727667 L 80.055313 39.744 L 79.743426 39.755667 L 79.418345 39.762667 L 79.08 39.765 L 78.803345 39.760604 L 78.528426 39.747417 L 78.255313 39.725438 L 77.984074 39.694667 L 77.71478 39.655104 L 77.4475 39.60675 L 77.182303 39.549604 L 76.919259 39.483667 L 76.658438 39.408938 L 76.399907 39.325417 L 76.143738 39.233104 L 75.89 39.132 L 75.64 39.023189 L 75.395 38.907264 L 75.155 38.784234 L 74.92 38.654111 L 74.69 38.516905 L 74.465 38.372625 L 74.245 38.221283 L 74.03 38.062889 L 73.82 37.897453 L 73.615 37.724986 L 73.415 37.545498 L 73.22 37.359 L 73.040619 37.167855 L 72.867454 36.969426 L 72.700469 36.763719 L 72.53963 36.550741 L 72.384902 36.330499 L 72.23625 36.103 L 72.09364 35.868251 L 71.957037 35.626259 L 71.826406 35.377031 L 71.701713 35.120574 L 71.582922 34.856895 L 71.47 34.586 L 71.36478 34.31 L 71.269074 34.0315 L 71.182813 33.7505 L 71.105926 33.467 L 71.038345 33.181 L 70.98 32.8925 L 70.930822 32.6015 L 70.890741 32.308 L 70.859688 32.012 L 70.837593 31.7135 L 70.824387 31.4125 L 70.82 31.109 L 70.828137 30.640979 L 70.852593 30.184912 L 70.893438 29.740797 L 70.950741 29.30863 L 71.024572 28.888407 L 71.115 28.480125 L 71.222095 28.083781 L 71.345926 27.69937 L 71.486563 27.326891 L 71.644074 26.966338 L 71.81853 26.617709 L 72.01 26.281 L 72.219578 25.955896 L 72.448287 25.642083 L 72.696094 25.339563 L 72.962963 25.048333 L 73.24886 24.768396 L 73.55375 24.49975 L 73.877598 24.242396 L 74.22037 23.996333 L 74.582031 23.761563 L 74.962546 23.538083 L 75.361881 23.325896 L 75.78 23.125 L 76.170434 22.954938 L 76.571806 22.793755 L 76.984219 22.641453 L 77.407778 22.498037 L 77.842587 22.36351 L 78.28875 22.237875 L 78.746372 22.121136 L 79.215556 22.013296 L 79.696406 21.914359 L 80.189028 21.824329 L 80.693524 21.743208 L 81.21 21.671 L 81.733542 21.605001 L 82.264167 21.542005 L 82.801875 21.482016 L 83.346667 21.425037 L 83.898542 21.371072 L 84.4575 21.320125 L 85.023542 21.272198 L 85.596667 21.227296 L 86.176875 21.185422 L 86.764167 21.146579 L 87.358542 21.11077 L 87.96 21.078 L 87.96 20.187 L 87.956464 19.923103 L 87.94588 19.667907 L 87.928281 19.421406 L 87.903704 19.183593 L 87.872182 18.954459 L 87.83375 18.734 L 87.788443 18.522207 L 87.736296 18.319074 L 87.677344 18.124594 L 87.61162 17.938759 L 87.539161 17.761564 L 87.46 17.593 L 87.377095 17.432041 L 87.288426 17.277162 L 87.194063 17.128359 L 87.094074 16.98563 L 86.98853 16.848969 L 86.8775 16.718375 L 86.761053 16.593843 L 86.639259 16.47537 L 86.512188 16.362953 L 86.379907 16.256588 L 86.242488 16.156271 L 86.1 16.062 L 85.949988 15.970916 L 85.794907 15.885162 L 85.634688 15.804734 L 85.469259 15.72963 L 85.298553 15.659844 L 85.1225 15.595375 L 84.94103 15.536218 L 84.754074 15.48237 L 84.561563 15.433828 L 84.363426 15.390588 L 84.159595 15.352646 L 83.95 15.32 L 83.737078 15.29125 L 83.523287 15.265 L 83.308594 15.24125 L 83.092963 15.22 L 82.87636 15.20125 L 82.65875 15.185 L 82.440098 15.17125 L 82.22037 15.16 L 81.999531 15.15125 L 81.777546 15.145 L 81.554381 15.14125 L 81.33 15.14 L 81.063536 15.143312 L 80.78912 15.15325 L 80.506719 15.169813 L 80.216296 15.193 L 79.917818 15.222812 L 79.61125 15.25925 L 79.296557 15.302313 L 78.973704 15.352 L 78.642656 15.408313 L 78.30338 15.47125 L 77.955839 15.540813 L 77.6 15.617 L 77.242494 15.69925 L 76.884954 15.7875 L 76.527344 15.88175 L 76.16963 15.982 L 75.811777 16.08825 L 75.45375 16.2005 L 75.095515 16.31875 L 74.737037 16.443 L 74.378281 16.57325 L 74.019213 16.7095 L 73.659797 16.85175 L 73.3 17 L 73.03 17 L 73.03 12.328 L 73.250006 12.267416 L 73.485046 12.205662 L 73.735156 12.142734 L 74.00037 12.07863 L 74.280723 12.013344 L 74.57625 11.946875 L 74.886985 11.879218 L 75.212963 11.81037 L 75.554219 11.740328 L 75.910787 11.669088 L 76.282703 11.596646 L 76.67 11.523 L 77.064589 11.451854 L 77.45838 11.386912 L 77.851406 11.328172 L 78.243704 11.27563 L 78.635307 11.229282 L 79.02625 11.189125 L 79.416568 11.155156 L 79.806296 11.12737 L 80.195469 11.105766 L 80.58412 11.090338 L 80.972286 11.081084 L 81.36 11.078 L 81.821262 11.081084 L 82.270093 11.090338 L 82.706563 11.105766 L 83.130741 11.12737 L 83.542697 11.155156 L 83.9425 11.189125 L 84.33022 11.229282 L 84.705926 11.27563 L 85.069688 11.328172 L 85.421574 11.386912 L 85.761655 11.451854 L 86.09 11.523 L 86.409601 11.602083 L 86.723472 11.690829 L 87.031719 11.789234 L 87.334444 11.897296 L 87.631753 12.015011 L 87.92375 12.142375 L 88.210538 12.279385 L 88.492222 12.426037 L 88.768906 12.582328 L 89.040694 12.748255 L 89.307691 12.923813 L 89.57 13.109 L 89.812095 13.301062 L 90.043426 13.502245 L 90.264062 13.712547 L 90.474074 13.931963 L 90.67353 14.16049 L 90.8625 14.398125 L 91.041053 14.644864 L 91.209259 14.900704 L 91.367188 15.165641 L 91.514907 15.439671 L 91.652488 15.722792 L 91.78 16.015 L 91.897494 16.317417 L 92.004954 16.630667 L 92.102344 16.95475 L 92.18963 17.289667 L 92.266777 17.635417 L 92.33375 17.992 L 92.390515 18.359417 L 92.437037 18.737667 L 92.473281 19.12675 L 92.499213 19.526667 L 92.514797 19.937417 L 92.52 20.359 L 92.52 39.015 L 87.96 39.015 L 87.96 36.109 Z" fill="black" fill-rule="evenodd" stroke="none"/>
</svg>
