<?xml version="1.0" encoding="UTF-8"?>
<svg xmlns="http://www.w3.org/2000/svg" version="1.1" width="25.42" height="32.031" viewBox="0 0 25.42 32.031">
  <metadata>prototype=prototype-12; representativeShape=shape-54.3; audiveris=FLAT; confidence=0.111867; interline=20</metadata>
  <path d="M 23.42 30.031 L 18.85 30.031 L 18.85 14.5 L 18.848553 14.18923 L 18.844259 13.881921 L 18.837187 13.578078 L 18.827407 13.277704 L 18.814988 12.980802 L 18.8 12.687375 L 18.782512 12.397428 L 18.762593 12.110963 L 18.740312 11.827984 L 18.715741 11.548495 L 18.688947 11.272499 L 18.66 11 L 18.625405 10.733792 L 18.586574 10.476671 L 18.543438 10.228641 L 18.495926 9.989704 L 18.44397 9.759864 L 18.3875 9.539125 L 18.326447 9.32749 L 18.260741 9.124963 L 18.190312 8.931547 L 18.115093 8.747245 L 18.035012 8.572062 L 17.95 8.406 L 17.854375 8.237918 L 17.7525 8.077176 L 17.644375 7.923781 L 17.53 7.777741 L 17.409375 7.639061 L 17.2825 7.50775 L 17.149375 7.383814 L 17.01 7.267259 L 16.864375 7.158094 L 16.7125 7.056324 L 16.554375 6.961957 L 16.39 6.875 L 16.219601 6.795209 L 16.038472 6.722338 L 15.846719 6.656391 L 15.644444 6.59737 L 15.431753 6.545281 L 15.20875 6.500125 L 14.975538 6.461907 L 14.732222 6.43063 L 14.478906 6.406297 L 14.215694 6.388912 L 13.942691 6.378479 L 13.66 6.375 L 13.374363 6.381354 L 13.087407 6.400412 L 12.799062 6.432172 L 12.509259 6.47663 L 12.217928 6.533782 L 11.925 6.603625 L 11.630405 6.686156 L 11.334074 6.78137 L 11.035937 6.889266 L 10.735926 7.009838 L 10.43397 7.143084 L 10.13 7.289 L 9.828119 7.445124 L 9.527454 7.608991 L 9.227969 7.780594 L 8.92963 7.959926 L 8.632402 8.14698 L 8.33625 8.34175 L 8.04114 8.544228 L 7.747037 8.754407 L 7.453906 8.972281 L 7.161713 9.197843 L 6.870422 9.431084 L 6.58 9.672 L 6.58 30.031 L 2 30.031 L 2 2.766 L 6.58 2.766 L 6.58 5.781 L 6.92228 5.482186 L 7.264074 5.195241 L 7.605312 4.920156 L 7.945926 4.656926 L 8.285845 4.405543 L 8.625 4.166 L 8.963322 3.938291 L 9.300741 3.722407 L 9.637187 3.518344 L 9.972593 3.326093 L 10.306887 3.145647 L 10.64 2.977 L 10.976262 2.820811 L 11.315093 2.678241 L 11.656563 2.549281 L 12.000741 2.433926 L 12.347697 2.332168 L 12.6975 2.244 L 13.05022 2.169416 L 13.405926 2.108407 L 13.764687 2.060969 L 14.126574 2.027093 L 14.491655 2.006772 L 14.86 2 L 15.520208 2.018395 L 16.155833 2.073579 L 16.766875 2.165547 L 17.353333 2.294296 L 17.915208 2.459823 L 18.4525 2.662125 L 18.965208 2.901197 L 19.453333 3.177037 L 19.916875 3.489641 L 20.355833 3.839005 L 20.770208 4.225126 L 21.16 4.648 L 21.521672 5.106042 L 21.851713 5.597167 L 22.150156 6.121375 L 22.417037 6.678667 L 22.65239 7.269042 L 22.85625 7.8925 L 23.028652 8.549042 L 23.16963 9.238667 L 23.279219 9.961375 L 23.357454 10.717167 L 23.404369 11.506042 L 23.42 12.328 L 23.42 30.031 Z" fill="black" fill-rule="evenodd" stroke="none"/>
</svg>
