<?xml version="1.0" encoding="UTF-8"?>
<svg xmlns="http://www.w3.org/2000/svg" version="1.1" width="34.613303" height="54.900905" viewBox="0 0 34.613303 54.900905">
  <metadata>prototype=prototype-40; representativeShape=shape-454; audiveris=EIGHTH_REST; confidence=0.979722; interline=40</metadata>
  <path d="M 31.608397 2.121303 L 31.580027 2.118916 L 31.547384 2.112317 L 31.511251 2.102349 L 31.472409 2.089854 L 31.431641 2.075674 L 31.389728 2.060651 L 31.347453 2.045629 L 31.305596 2.031449 L 31.264941 2.018954 L 31.226269 2.008985 L 31.190363 2.002387 L 31.158003 2 L 30.995698 2.007139 L 30.83851 2.028233 L 30.687218 2.062803 L 30.542606 2.110367 L 30.405456 2.170443 L 30.276548 2.24255 L 30.156666 2.326207 L 30.046591 2.420933 L 29.947105 2.526247 L 29.85899 2.641667 L 29.783027 2.766711 L 29.72 2.9009 L 29.54614 3.183135 L 29.253046 3.680304 L 28.845652 4.361909 L 28.328891 5.197451 L 27.707697 6.156433 L 26.987002 7.208355 L 26.171741 8.322719 L 25.266846 9.469027 L 24.277251 10.61678 L 23.207889 11.73548 L 22.063695 12.794627 L 20.8496 13.763725 L 20.483093 14.033997 L 20.103416 14.290133 L 19.711831 14.53171 L 19.3096 14.758309 L 18.897986 14.969508 L 18.478251 15.164886 L 18.051658 15.344022 L 17.619468 15.506494 L 17.182946 15.651882 L 16.743352 15.779763 L 16.301949 15.889718 L 15.86 15.981325 L 16.153976 15.614634 L 16.428698 15.233627 L 16.682965 14.838423 L 16.915573 14.429141 L 17.12532 14.005903 L 17.311003 13.568827 L 17.47142 13.118034 L 17.605366 12.653643 L 17.711641 12.175774 L 17.78904 11.684548 L 17.836362 11.180083 L 17.852403 10.6625 L 17.780025 9.597547 L 17.569349 8.574702 L 17.23006 7.603591 L 16.771841 6.693838 L 16.204379 5.855068 L 15.537357 5.096906 L 14.780461 4.428978 L 13.943375 3.860907 L 13.035784 3.40232 L 12.067373 3.062841 L 11.047827 2.852096 L 9.986831 2.779708 L 8.897982 2.852096 L 7.855213 3.062841 L 6.867788 3.40232 L 5.944971 3.860907 L 5.096025 4.428978 L 4.330215 5.096906 L 3.656805 5.855068 L 3.08506 6.693838 L 2.624242 7.603591 L 2.283617 8.574702 L 2.072448 9.597547 L 2 10.6625 L 2.118578 12.09027 L 2.459193 13.385995 L 2.999166 14.551179 L 3.715818 15.587327 L 4.58647 16.495942 L 5.588443 17.278528 L 6.699058 17.93659 L 7.895636 18.471631 L 9.155498 18.885157 L 10.455965 19.178669 L 11.774359 19.353674 L 13.088 19.411675 L 14.515885 19.354757 L 15.86731 19.187332 L 17.148833 18.914392 L 18.367009 18.540931 L 19.528396 18.071941 L 20.639552 17.512416 L 21.707032 16.867346 L 22.737394 16.141727 L 23.737194 15.34055 L 24.71299 14.468807 L 25.671339 13.531493 L 26.618797 12.5336 L 13.971603 52.017303 L 16.9688 52.900905 L 32.492 4.0097 L 32.519869 3.977303 L 32.543104 3.94099 L 32.562128 3.901183 L 32.577361 3.858304 L 32.589225 3.812774 L 32.59814 3.765016 L 32.604528 3.715451 L 32.60881 3.664502 L 32.611407 3.61259 L 32.612741 3.560138 L 32.613233 3.507567 L 32.613303 3.4553 L 32.606104 3.318877 L 32.584588 3.186847 L 32.548875 3.05927 L 32.499084 2.936205 L 32.435336 2.817713 L 32.357752 2.703852 L 32.266451 2.594684 L 32.161553 2.490266 L 32.043179 2.39066 L 31.911448 2.295924 L 31.766481 2.206118 L 31.608397 2.121303 Z" fill="black" fill-rule="evenodd" stroke="none"/>
</svg>
